<svg xmlns="http://www.w3.org/2000/svg" viewBox="0 0 64 64" width="64" height="64">
  <defs>
    <linearGradient id="g" x1="8" y1="6" x2="56" y2="58" gradientUnits="userSpaceOnUse">
      <stop offset="0" stop-color="#e8dcc2"/>
      <stop offset="1" stop-color="#c7b284"/>
    </linearGradient>
  </defs>
  <rect x="2" y="2" width="60" height="60" rx="16" fill="#14110c"/>
  <rect x="2.5" y="2.5" width="59" height="59" rx="15.5" fill="none" stroke="url(#g)" stroke-opacity="0.45"/>
  <path d="M44 20c-3.4-3.2-8-4.6-12.2-4.6-6.4 0-11.3 3.4-11.3 8.6 0 5 4 7.2 10.6 8.6 6.4 1.4 8.4 2.4 8.4 4.8 0 2.6-2.8 4.2-6.8 4.2-4.4 0-8.2-1.8-11-4.8"
        fill="none" stroke="url(#g)" stroke-width="5.2" stroke-linecap="round" stroke-linejoin="round"/>
  <path d="M46 19l4.6-3.2M46 19l5.6-.4" fill="none" stroke="#c7b284" stroke-width="1.8" stroke-linecap="round"/>
  <circle cx="42.4" cy="19.4" r="1.2" fill="#14110c"/>
</svg>
